<?xml version="1.0" encoding="utf-8"?>
<!-- Generator: Adobe Illustrator 17.0.0, SVG Export Plug-In . SVG Version: 6.00 Build 0)  -->
<!DOCTYPE svg PUBLIC "-//W3C//DTD SVG 1.1//EN" "http://www.w3.org/Graphics/SVG/1.1/DTD/svg11.dtd">
<svg version="1.1" id="Layer_1" xmlns="http://www.w3.org/2000/svg" xmlns:xlink="http://www.w3.org/1999/xlink" x="0px" y="0px"
	 width="26.6px" height="83.7px" viewBox="0 0 26.6 83.7" style="enable-background:new 0 0 26.6 83.7;" xml:space="preserve">
<style type="text/css">
	.st0{fill:#F5F5F5;}
	.st1{fill:#FFFFFF;}
</style>
<g>
	<path class="st0" d="M19,8.3c-0.4,0.2-0.9,0.3-1.4,0.4c0.5-0.3,0.9-0.8,1-1.3c-0.5,0.3-1,0.5-1.5,0.6c-0.4-0.5-1-0.7-1.7-0.7
		c-1.3,0-2.4,1.1-2.4,2.4c0,0.2,0,0.4,0.1,0.5c-2-0.1-3.7-1-4.8-2.5C8.1,8,8,8.4,8,8.9c0,0.8,0.4,1.5,1,2c-0.4,0-0.7-0.1-1.1-0.3
		c0,0,0,0,0,0c0,1.1,0.8,2.1,1.9,2.3c-0.2,0.1-0.4,0.1-0.6,0.1c-0.2,0-0.3,0-0.4,0c0.3,0.9,1.2,1.6,2.2,1.6c-0.8,0.6-1.8,1-2.9,1
		c-0.2,0-0.4,0-0.6,0c1,0.7,2.3,1.1,3.6,1.1c4.3,0,6.7-3.6,6.7-6.7c0-0.1,0-0.2,0-0.3C18.3,9.2,18.7,8.8,19,8.3z"/>
</g>
<path class="st0" d="M15.9,31.5h-1.8v-1.2c0-0.4,0.3-0.5,0.5-0.5c0.2,0,1.3,0,1.3,0v-1.9l-1.7,0c-1.9,0-2.4,1.4-2.4,2.4v1.3h-1.1v2
	h1.1c0,2.5,0,5.6,0,5.6h2.3c0,0,0-3.1,0-5.6h1.6L15.9,31.5z"/>
<g>
	<path class="st1" d="M9.1,60l4.2,4.2l4.2-4.2l1.9,1.9L15.2,66l4.2,4.2l-1.9,1.9l-4.2-4.2l-4.2,4.2l-1.9-1.9l4.2-4.2l-4.2-4.2
		L9.1,60z"/>
</g>
</svg>
